# xmcd
# Copyright (C) 1995-1998 Ti Kan
#
# Track frame offsets:
#       150
#       18136
#       32564
#       45347
#       59864
#       75230
#       89857
#       109494
#       122830
#       140569
#       158569
#       173017
#       190494
#
# Disc length: 2890 seconds
#
# Revision: 0
# Processed by: cddbd v1.5PL3 Copyright (c) Steve Scherf et al.
# Submitted via: CD-Transfer v1.0
#
DISCID=ab0b480d
DTITLE=Preen - Release Me
DYEAR=2004
DGENRE=
TTITLE0=Release Me
TTITLE1=Landscape
TTITLE2=All Alone
TTITLE3=Up To Then
TTITLE4=Ray Of Light
TTITLE5=Outside
TTITLE6=Abouve Clouds And Visions
TTITLE7=Between Us
TTITLE8=Astray
TTITLE9=You Feel It
TTITLE10=Knowing The Future
TTITLE11=How Come You're Free Now
TTITLE12=A Friend
EXTD=
EXTT0=
EXTT1=
EXTT2=
EXTT3=
EXTT4=
EXTT5=
EXTT6=
EXTT7=
EXTT8=
EXTT9=
EXTT10=
EXTT11=
EXTT12=
PLAYORDER=
